<svg xmlns="http://www.w3.org/2000/svg" xmlns:xlink="http://www.w3.org/1999/xlink" width="1500" zoomAndPan="magnify" viewBox="0 0 1125 354.749987" height="473" preserveAspectRatio="xMidYMid meet" version="1.0"><defs><g/><clipPath id="f15494fb27"><path d="M 0.394531 305 L 354.894531 305 L 354.894531 354.5 L 0.394531 354.5 Z M 0.394531 305 " clip-rule="nonzero"/></clipPath></defs><path fill="#6caae1" d="M 330.449219 85.570312 L 330.449219 305.605469 L 24.84375 305.605469 L 24.84375 85.570312 L 330.449219 85.570312 " fill-opacity="1" fill-rule="nonzero"/><path fill="#5798d8" d="M 330.449219 86.238281 L 330.449219 305.605469 L 83.695312 305.605469 C 151.359375 270.648438 267.488281 198.023438 330.449219 86.238281 " fill-opacity="1" fill-rule="nonzero"/><g clip-path="url(#f15494fb27)"><path fill="#c6c3c9" d="M 330.449219 305.605469 L 0.394531 305.605469 L 0.394531 342.277344 C 0.394531 349.007812 5.886719 354.5 12.621094 354.5 L 342.671875 354.5 C 349.40625 354.5 354.894531 349.007812 354.894531 342.277344 L 354.894531 305.605469 L 330.449219 305.605469 " fill-opacity="1" fill-rule="nonzero"/></g><path fill="#5798d8" d="M 330.449219 85.570312 L 330.449219 121.453125 C 319.871094 118.753906 312.113281 109.15625 312.113281 97.792969 C 312.113281 111.304688 301.175781 122.242188 287.664062 122.242188 C 274.148438 122.242188 263.214844 111.304688 263.214844 97.792969 C 263.214844 111.304688 252.28125 122.242188 238.765625 122.242188 C 225.253906 122.242188 214.320312 111.304688 214.320312 97.792969 C 214.320312 111.304688 203.382812 122.242188 189.871094 122.242188 C 176.355469 122.242188 165.421875 111.304688 165.421875 97.792969 C 165.421875 111.304688 154.488281 122.242188 140.972656 122.242188 C 127.460938 122.242188 116.527344 111.304688 116.527344 97.792969 C 116.527344 111.304688 105.589844 122.242188 92.078125 122.242188 C 78.5625 122.242188 67.628906 111.304688 67.628906 97.792969 C 67.628906 111.304688 56.695312 122.242188 43.179688 122.242188 C 41.03125 122.242188 39.027344 122.003906 37.070312 121.453125 C 32.292969 120.210938 28.019531 117.585938 24.84375 113.980469 L 24.84375 85.570312 L 330.449219 85.570312 " fill-opacity="1" fill-rule="nonzero"/><path fill="#ec1d27" d="M 299.886719 0 L 348.785156 55.007812 L 6.507812 55.007812 L 55.40625 0 L 299.886719 0 " fill-opacity="1" fill-rule="nonzero"/><path fill="#aaa8af" d="M 208.207031 305.605469 L 208.207031 323.941406 C 208.207031 327.304688 205.460938 330.050781 202.09375 330.050781 L 153.199219 330.050781 C 149.832031 330.050781 147.085938 327.304688 147.085938 323.941406 L 147.085938 305.605469 L 208.207031 305.605469 " fill-opacity="1" fill-rule="nonzero"/><path fill="#5798d8" d="M 233.011719 171.136719 L 237.167969 147.597656 C 237.308594 146.878906 237.359375 146.261719 237.359375 145.519531 C 238.027344 145.519531 238.765625 145.589844 239.433594 145.710938 C 245.378906 146.761719 249.582031 151.894531 249.582031 157.695312 C 249.582031 158.414062 249.535156 159.105469 249.390625 159.820312 L 247.386719 171.136719 L 233.011719 171.136719 " fill-opacity="1" fill-rule="nonzero"/><path fill="#417dc8" d="M 275.4375 195.585938 C 275.4375 198.953125 274.101562 202.007812 271.835938 204.207031 C 269.636719 206.472656 266.582031 207.808594 263.214844 207.808594 L 257.101562 207.808594 L 252.28125 270.269531 C 251.539062 283.234375 240.84375 293.378906 227.878906 293.378906 L 151.859375 293.378906 C 142 293.378906 133.453125 287.507812 129.609375 278.957031 C 132.664062 280.367188 136.078125 281.15625 139.636719 281.15625 L 215.65625 281.15625 C 228.621094 281.15625 239.316406 271.007812 240.054688 258.042969 L 244.878906 195.585938 L 250.992188 195.585938 C 254.359375 195.585938 257.414062 194.25 259.609375 191.980469 C 261.878906 189.785156 263.214844 186.730469 263.214844 183.363281 C 269.949219 183.363281 275.4375 188.851562 275.4375 195.585938 " fill-opacity="1" fill-rule="nonzero"/><path fill="#f68c12" d="M 244.878906 195.585938 L 243.972656 207.808594 L 240.054688 258.042969 C 239.316406 271.007812 228.621094 281.15625 215.65625 281.15625 L 139.636719 281.15625 C 126.671875 281.15625 115.976562 271.007812 115.234375 258.042969 L 111.320312 207.808594 L 110.414062 195.585938 L 244.878906 195.585938 " fill-opacity="1" fill-rule="nonzero"/><path fill="#f68c12" d="M 250.992188 171.136719 L 104.300781 171.136719 C 100.933594 171.136719 97.878906 172.476562 95.683594 174.742188 C 93.414062 176.941406 92.078125 179.996094 92.078125 183.363281 C 92.078125 190.09375 97.570312 195.585938 104.300781 195.585938 L 250.992188 195.585938 C 254.359375 195.585938 257.414062 194.25 259.609375 191.980469 C 261.878906 189.785156 263.214844 186.730469 263.214844 183.363281 C 263.214844 176.628906 257.722656 171.136719 250.992188 171.136719 " fill-opacity="1" fill-rule="nonzero"/><path fill="#ec7a16" d="M 227.210938 133.488281 C 220.621094 132.269531 214.246094 136.734375 213.101562 143.394531 L 208.207031 171.136719 L 203.859375 195.585938 L 228.691406 195.585938 L 233.011719 171.136719 L 237.167969 147.597656 C 237.308594 146.878906 237.359375 146.1875 237.359375 145.472656 C 237.359375 139.671875 233.15625 134.539062 227.210938 133.488281 " fill-opacity="1" fill-rule="nonzero"/><path fill="#ec7a16" d="M 142.191406 143.394531 C 141.046875 136.734375 134.671875 132.269531 128.082031 133.488281 C 122.136719 134.539062 117.933594 139.671875 117.933594 145.472656 C 117.933594 146.1875 117.980469 146.878906 118.125 147.597656 L 122.28125 171.136719 L 126.601562 195.585938 L 151.429688 195.585938 L 147.085938 171.136719 L 142.191406 143.394531 " fill-opacity="1" fill-rule="nonzero"/><path fill="#ec7a16" d="M 183.757812 262.820312 L 171.535156 262.820312 L 171.535156 213.921875 L 183.757812 213.921875 L 183.757812 262.820312 " fill-opacity="1" fill-rule="nonzero"/><path fill="#ec7a16" d="M 214.320312 262.820312 L 202.09375 262.820312 L 202.09375 213.921875 L 214.320312 213.921875 L 214.320312 262.820312 " fill-opacity="1" fill-rule="nonzero"/><path fill="#ec7a16" d="M 153.199219 262.820312 L 140.972656 262.820312 L 140.972656 213.921875 L 153.199219 213.921875 L 153.199219 262.820312 " fill-opacity="1" fill-rule="nonzero"/><path fill="#417dc8" d="M 312.113281 268.929688 L 275.4375 268.929688 L 275.4375 256.707031 L 312.113281 256.707031 L 312.113281 268.929688 " fill-opacity="1" fill-rule="nonzero"/><path fill="#417dc8" d="M 312.113281 244.484375 L 275.4375 244.484375 L 275.4375 232.257812 L 312.113281 232.257812 L 312.113281 244.484375 " fill-opacity="1" fill-rule="nonzero"/><path fill="#417dc8" d="M 312.113281 220.035156 L 275.4375 220.035156 L 275.4375 207.808594 L 312.113281 207.808594 L 312.113281 220.035156 " fill-opacity="1" fill-rule="nonzero"/><path fill="#417dc8" d="M 79.851562 268.929688 L 43.179688 268.929688 L 43.179688 256.707031 L 79.851562 256.707031 L 79.851562 268.929688 " fill-opacity="1" fill-rule="nonzero"/><path fill="#417dc8" d="M 79.851562 244.484375 L 43.179688 244.484375 L 43.179688 232.257812 L 79.851562 232.257812 L 79.851562 244.484375 " fill-opacity="1" fill-rule="nonzero"/><path fill="#417dc8" d="M 79.851562 220.035156 L 43.179688 220.035156 L 43.179688 207.808594 L 79.851562 207.808594 L 79.851562 220.035156 " fill-opacity="1" fill-rule="nonzero"/><path fill="#f03e27" d="M 24.84375 109.230469 C 14.269531 106.53125 6.507812 96.933594 6.507812 85.570312 L 6.507812 55.007812 L 348.785156 55.007812 L 348.785156 85.570312 C 348.785156 96.933594 341.023438 106.53125 330.449219 109.230469 C 328.488281 109.777344 326.484375 110.015625 324.335938 110.015625 C 310.824219 110.015625 299.886719 99.082031 299.886719 85.570312 C 299.886719 99.082031 288.953125 110.015625 275.4375 110.015625 C 261.925781 110.015625 250.992188 99.082031 250.992188 85.570312 C 250.992188 99.082031 240.054688 110.015625 226.542969 110.015625 C 213.03125 110.015625 202.09375 99.082031 202.09375 85.570312 C 202.09375 99.082031 191.160156 110.015625 177.644531 110.015625 C 164.132812 110.015625 153.199219 99.082031 153.199219 85.570312 C 153.199219 99.082031 142.261719 110.015625 128.75 110.015625 C 115.234375 110.015625 104.300781 99.082031 104.300781 85.570312 C 104.300781 99.082031 93.367188 110.015625 79.851562 110.015625 C 66.339844 110.015625 55.40625 99.082031 55.40625 85.570312 C 55.40625 99.082031 44.46875 110.015625 30.957031 110.015625 C 28.808594 110.015625 26.800781 109.777344 24.84375 109.230469 " fill-opacity="1" fill-rule="nonzero"/><path fill="#ec7a16" d="M 244.878906 195.585938 L 243.972656 207.808594 L 111.320312 207.808594 L 110.414062 195.585938 L 244.878906 195.585938 " fill-opacity="1" fill-rule="nonzero"/><g fill="#f53d2d" fill-opacity="1"><g transform="translate(391.687748, 241.042414)"><g><path d="M 38.125 -25.296875 L 46.375 -25.296875 C 53.457031 -25.296875 59.65625 -26.941406 64.96875 -30.234375 C 70.289062 -33.535156 74.445312 -37.992188 77.4375 -43.609375 C 80.425781 -49.234375 81.921875 -55.46875 81.921875 -62.3125 C 81.921875 -69.28125 80.425781 -75.539062 77.4375 -81.09375 C 74.445312 -86.65625 70.289062 -91.054688 64.96875 -94.296875 C 59.65625 -97.535156 53.457031 -99.15625 46.375 -99.15625 L 38.125 -99.15625 Z M 11 -124.625 L 48.015625 -124.625 C 56.816406 -124.625 64.972656 -123.035156 72.484375 -119.859375 C 80.003906 -116.679688 86.570312 -112.28125 92.1875 -106.65625 C 97.8125 -101.039062 102.179688 -94.445312 105.296875 -86.875 C 108.410156 -79.300781 109.96875 -71.113281 109.96875 -62.3125 C 109.96875 -53.519531 108.410156 -45.332031 105.296875 -37.75 C 102.179688 -30.175781 97.84375 -23.578125 92.28125 -17.953125 C 86.71875 -12.335938 80.148438 -7.941406 72.578125 -4.765625 C 65.003906 -1.585938 56.816406 0 48.015625 0 L 11 0 Z M 11 -124.625 "/></g></g></g><g fill="#f53d2d" fill-opacity="1"><g transform="translate(508.066279, 241.042414)"><g><path d="M 35.921875 -50.03125 L 72.03125 -50.03125 C 72.03125 -50.03125 71.875 -50.796875 71.5625 -52.328125 C 71.257812 -53.859375 70.523438 -55.597656 69.359375 -57.546875 C 68.203125 -59.503906 66.398438 -61.242188 63.953125 -62.765625 C 61.515625 -64.296875 58.21875 -65.0625 54.0625 -65.0625 C 49.789062 -65.0625 46.429688 -64.296875 43.984375 -62.765625 C 41.546875 -61.242188 39.742188 -59.503906 38.578125 -57.546875 C 37.421875 -55.597656 36.6875 -53.859375 36.375 -52.328125 C 36.070312 -50.796875 35.921875 -50.03125 35.921875 -50.03125 Z M 98.421875 -42.15625 C 98.421875 -41.300781 98.390625 -40.445312 98.328125 -39.59375 C 98.265625 -38.738281 98.234375 -37.878906 98.234375 -37.015625 L 35.5625 -37.015625 C 35.5625 -33.960938 36.257812 -30.9375 37.65625 -27.9375 C 39.0625 -24.945312 41.078125 -22.503906 43.703125 -20.609375 C 46.335938 -18.722656 49.425781 -17.78125 52.96875 -17.78125 C 57.851562 -17.78125 61.703125 -19.09375 64.515625 -21.71875 C 67.328125 -24.34375 68.789062 -27.125 68.90625 -30.0625 L 96.953125 -30.0625 C 94.628906 -19.425781 89.492188 -11.453125 81.546875 -6.140625 C 73.609375 -0.828125 64.265625 1.828125 53.515625 1.828125 C 44.234375 1.828125 36.046875 0.0859375 28.953125 -3.390625 C 21.867188 -6.867188 16.34375 -11.753906 12.375 -18.046875 C 8.40625 -24.335938 6.421875 -31.765625 6.421875 -40.328125 C 6.421875 -48.753906 8.460938 -56.144531 12.546875 -62.5 C 16.640625 -68.851562 22.226562 -73.800781 29.3125 -77.34375 C 36.40625 -80.882812 44.472656 -82.65625 53.515625 -82.65625 C 61.703125 -82.65625 69.1875 -81.066406 75.96875 -77.890625 C 82.75 -74.710938 88.1875 -70.128906 92.28125 -64.140625 C 96.375 -58.160156 98.421875 -50.832031 98.421875 -42.15625 Z M 98.421875 -42.15625 "/></g></g></g><g fill="#f53d2d" fill-opacity="1"><g transform="translate(612.898585, 241.042414)"><g><path d="M 38.484375 0 L 11 0 L 11 -137.453125 L 38.484375 -137.453125 Z M 38.484375 0 "/></g></g></g><g fill="#f53d2d" fill-opacity="1"><g transform="translate(662.382362, 241.042414)"><g><path d="M 38.484375 0 L 11 0 L 11 -137.453125 L 38.484375 -137.453125 Z M 38.484375 0 "/></g></g></g><g fill="#f53d2d" fill-opacity="1"><g transform="translate(711.866139, 241.042414)"><g><path d="M 43.796875 45.8125 L 15.21875 45.8125 L 33.546875 0 L 28.953125 0 L -1.828125 -80.828125 L 25.84375 -80.828125 L 45.09375 -23.09375 L 64.328125 -80.828125 L 92.1875 -80.828125 L 61.40625 0 Z M 43.796875 45.8125 "/></g></g></g><g fill="#f53d2d" fill-opacity="1"><g transform="translate(802.219837, 241.042414)"><g><path d="M 38.484375 -40.328125 C 38.484375 -36.773438 39.335938 -33.472656 41.046875 -30.421875 C 42.765625 -27.367188 45.054688 -24.894531 47.921875 -23 C 50.796875 -21.101562 54.066406 -20.15625 57.734375 -20.15625 C 61.398438 -20.15625 64.664062 -21.101562 67.53125 -23 C 70.40625 -24.894531 72.695312 -27.367188 74.40625 -30.421875 C 76.125 -33.472656 76.984375 -36.773438 76.984375 -40.328125 C 76.984375 -43.867188 76.125 -47.164062 74.40625 -50.21875 C 72.695312 -53.269531 70.40625 -55.742188 67.53125 -57.640625 C 64.664062 -59.535156 61.398438 -60.484375 57.734375 -60.484375 C 54.066406 -60.484375 50.796875 -59.535156 47.921875 -57.640625 C 45.054688 -55.742188 42.765625 -53.269531 41.046875 -50.21875 C 39.335938 -47.164062 38.484375 -43.867188 38.484375 -40.328125 Z M 38.484375 0 L 11 0 L 11 -137.453125 L 38.484375 -137.453125 L 38.484375 -70.9375 C 42.023438 -75.332031 46.207031 -78.382812 51.03125 -80.09375 C 55.863281 -81.800781 60.910156 -82.65625 66.171875 -82.65625 C 73.867188 -82.65625 80.738281 -80.671875 86.78125 -76.703125 C 92.832031 -72.734375 97.597656 -67.539062 101.078125 -61.125 C 104.554688 -54.707031 106.296875 -47.773438 106.296875 -40.328125 C 106.296875 -32.867188 104.554688 -25.929688 101.078125 -19.515625 C 97.597656 -13.097656 92.832031 -7.9375 86.78125 -4.03125 C 80.738281 -0.125 73.867188 1.828125 66.171875 1.828125 C 60.910156 1.828125 55.679688 0.941406 50.484375 -0.828125 C 45.296875 -2.597656 41.296875 -5.5625 38.484375 -9.71875 Z M 38.484375 0 "/></g></g></g><g fill="#f53d2d" fill-opacity="1"><g transform="translate(914.932912, 241.042414)"><g><path d="M 35.921875 -50.03125 L 72.03125 -50.03125 C 72.03125 -50.03125 71.875 -50.796875 71.5625 -52.328125 C 71.257812 -53.859375 70.523438 -55.597656 69.359375 -57.546875 C 68.203125 -59.503906 66.398438 -61.242188 63.953125 -62.765625 C 61.515625 -64.296875 58.21875 -65.0625 54.0625 -65.0625 C 49.789062 -65.0625 46.429688 -64.296875 43.984375 -62.765625 C 41.546875 -61.242188 39.742188 -59.503906 38.578125 -57.546875 C 37.421875 -55.597656 36.6875 -53.859375 36.375 -52.328125 C 36.070312 -50.796875 35.921875 -50.03125 35.921875 -50.03125 Z M 98.421875 -42.15625 C 98.421875 -41.300781 98.390625 -40.445312 98.328125 -39.59375 C 98.265625 -38.738281 98.234375 -37.878906 98.234375 -37.015625 L 35.5625 -37.015625 C 35.5625 -33.960938 36.257812 -30.9375 37.65625 -27.9375 C 39.0625 -24.945312 41.078125 -22.503906 43.703125 -20.609375 C 46.335938 -18.722656 49.425781 -17.78125 52.96875 -17.78125 C 57.851562 -17.78125 61.703125 -19.09375 64.515625 -21.71875 C 67.328125 -24.34375 68.789062 -27.125 68.90625 -30.0625 L 96.953125 -30.0625 C 94.628906 -19.425781 89.492188 -11.453125 81.546875 -6.140625 C 73.609375 -0.828125 64.265625 1.828125 53.515625 1.828125 C 44.234375 1.828125 36.046875 0.0859375 28.953125 -3.390625 C 21.867188 -6.867188 16.34375 -11.753906 12.375 -18.046875 C 8.40625 -24.335938 6.421875 -31.765625 6.421875 -40.328125 C 6.421875 -48.753906 8.460938 -56.144531 12.546875 -62.5 C 16.640625 -68.851562 22.226562 -73.800781 29.3125 -77.34375 C 36.40625 -80.882812 44.472656 -82.65625 53.515625 -82.65625 C 61.703125 -82.65625 69.1875 -81.066406 75.96875 -77.890625 C 82.75 -74.710938 88.1875 -70.128906 92.28125 -64.140625 C 96.375 -58.160156 98.421875 -50.832031 98.421875 -42.15625 Z M 98.421875 -42.15625 "/></g></g></g><g fill="#f53d2d" fill-opacity="1"><g transform="translate(1019.765206, 241.042414)"><g><path d="M 35.921875 -50.03125 L 72.03125 -50.03125 C 72.03125 -50.03125 71.875 -50.796875 71.5625 -52.328125 C 71.257812 -53.859375 70.523438 -55.597656 69.359375 -57.546875 C 68.203125 -59.503906 66.398438 -61.242188 63.953125 -62.765625 C 61.515625 -64.296875 58.21875 -65.0625 54.0625 -65.0625 C 49.789062 -65.0625 46.429688 -64.296875 43.984375 -62.765625 C 41.546875 -61.242188 39.742188 -59.503906 38.578125 -57.546875 C 37.421875 -55.597656 36.6875 -53.859375 36.375 -52.328125 C 36.070312 -50.796875 35.921875 -50.03125 35.921875 -50.03125 Z M 98.421875 -42.15625 C 98.421875 -41.300781 98.390625 -40.445312 98.328125 -39.59375 C 98.265625 -38.738281 98.234375 -37.878906 98.234375 -37.015625 L 35.5625 -37.015625 C 35.5625 -33.960938 36.257812 -30.9375 37.65625 -27.9375 C 39.0625 -24.945312 41.078125 -22.503906 43.703125 -20.609375 C 46.335938 -18.722656 49.425781 -17.78125 52.96875 -17.78125 C 57.851562 -17.78125 61.703125 -19.09375 64.515625 -21.71875 C 67.328125 -24.34375 68.789062 -27.125 68.90625 -30.0625 L 96.953125 -30.0625 C 94.628906 -19.425781 89.492188 -11.453125 81.546875 -6.140625 C 73.609375 -0.828125 64.265625 1.828125 53.515625 1.828125 C 44.234375 1.828125 36.046875 0.0859375 28.953125 -3.390625 C 21.867188 -6.867188 16.34375 -11.753906 12.375 -18.046875 C 8.40625 -24.335938 6.421875 -31.765625 6.421875 -40.328125 C 6.421875 -48.753906 8.460938 -56.144531 12.546875 -62.5 C 16.640625 -68.851562 22.226562 -73.800781 29.3125 -77.34375 C 36.40625 -80.882812 44.472656 -82.65625 53.515625 -82.65625 C 61.703125 -82.65625 69.1875 -81.066406 75.96875 -77.890625 C 82.75 -74.710938 88.1875 -70.128906 92.28125 -64.140625 C 96.375 -58.160156 98.421875 -50.832031 98.421875 -42.15625 Z M 98.421875 -42.15625 "/></g></g></g></svg>