<svg xmlns="http://www.w3.org/2000/svg" xmlns:xlink="http://www.w3.org/1999/xlink" width="1500" zoomAndPan="magnify" viewBox="0 0 1125 354.749987" height="473" preserveAspectRatio="xMidYMid meet" version="1.0"><defs><g/><clipPath id="8c4e34cd64"><path d="M 0.394531 316 L 354.894531 316 L 354.894531 354.5 L 0.394531 354.5 Z M 0.394531 316 " clip-rule="nonzero"/></clipPath></defs><path fill="#ffffff" d="M 130.09375 189.910156 L 142.953125 189.910156 L 134.695312 143.273438 C 134.398438 141.59375 133.480469 140.132812 132.074219 139.144531 C 130.710938 138.203125 129.054688 137.859375 127.449219 138.15625 C 124.359375 138.699219 122.132812 141.296875 122.132812 144.335938 C 122.132812 144.734375 122.15625 145.128906 122.230469 145.523438 L 130.09375 189.910156 " fill-opacity="1" fill-rule="nonzero"/><path fill="#ffffff" d="M 199.503906 189.910156 L 201.730469 177.25 L 153.5625 177.25 L 155.785156 189.910156 L 199.503906 189.910156 " fill-opacity="1" fill-rule="nonzero"/><path fill="#ffffff" d="M 253.609375 177.25 L 240.308594 177.25 L 238.054688 189.910156 L 253.609375 189.910156 C 255.292969 189.910156 256.851562 189.269531 258.011719 188.082031 C 259.296875 186.820312 259.941406 185.261719 259.941406 183.582031 C 259.941406 180.09375 257.097656 177.25 253.609375 177.25 " fill-opacity="1" fill-rule="nonzero"/><path fill="#ffffff" d="M 114.984375 177.25 L 101.683594 177.25 C 100 177.25 98.441406 177.894531 97.28125 179.078125 C 95.996094 180.339844 95.351562 181.898438 95.351562 183.582031 C 95.351562 187.066406 98.195312 189.910156 101.683594 189.910156 L 117.234375 189.910156 L 114.984375 177.25 " fill-opacity="1" fill-rule="nonzero"/><path fill="#ffffff" d="M 233.0625 145.449219 C 233.136719 145.128906 233.160156 144.734375 233.160156 144.335938 C 233.160156 141.296875 230.933594 138.699219 227.894531 138.15625 C 226.210938 137.859375 224.578125 138.203125 223.21875 139.144531 C 221.808594 140.132812 220.894531 141.59375 220.597656 143.273438 L 212.339844 189.910156 L 225.199219 189.910156 L 233.0625 145.449219 " fill-opacity="1" fill-rule="nonzero"/><path fill="#ffffff" d="M 6.726562 82.292969 C 6.726562 92.78125 15.234375 101.285156 25.71875 101.285156 C 36.203125 101.285156 44.707031 92.78125 44.707031 82.292969 L 57.371094 82.292969 C 57.371094 92.78125 65.875 101.285156 76.359375 101.285156 C 86.84375 101.285156 95.351562 92.78125 95.351562 82.292969 L 108.011719 82.292969 C 108.011719 92.78125 116.519531 101.285156 127.003906 101.285156 C 137.488281 101.285156 145.996094 92.78125 145.996094 82.292969 L 158.65625 82.292969 C 158.65625 92.78125 167.160156 101.285156 177.644531 101.285156 C 188.132812 101.285156 196.636719 92.78125 196.636719 82.292969 L 209.296875 82.292969 C 209.296875 92.78125 217.804688 101.285156 228.289062 101.285156 C 238.773438 101.285156 247.28125 92.78125 247.28125 82.292969 L 259.941406 82.292969 C 259.941406 92.78125 268.449219 101.285156 278.933594 101.285156 C 289.417969 101.285156 297.921875 92.78125 297.921875 82.292969 L 310.582031 82.292969 C 310.582031 92.78125 319.089844 101.285156 329.574219 101.285156 C 340.058594 101.285156 348.566406 92.78125 348.566406 82.292969 L 348.566406 56.972656 L 6.726562 56.972656 L 6.726562 82.292969 " fill-opacity="1" fill-rule="nonzero"/><path fill="#ffffff" d="M 53.882812 0 L 14.492188 44.3125 L 340.800781 44.3125 L 301.410156 0 L 53.882812 0 " fill-opacity="1" fill-rule="nonzero"/><path fill="#ffffff" d="M 139.664062 215.230469 L 152.324219 215.230469 L 152.324219 265.875 L 139.664062 265.875 Z M 171.316406 215.230469 L 183.976562 215.230469 L 183.976562 265.875 L 171.316406 265.875 Z M 202.96875 215.230469 L 215.628906 215.230469 L 215.628906 265.875 L 202.96875 265.875 Z M 119.3125 260.460938 C 119.90625 270.648438 128.214844 278.535156 138.304688 278.535156 L 216.988281 278.535156 C 227.078125 278.535156 235.386719 270.648438 235.953125 260.582031 L 240.429688 202.570312 L 114.863281 202.570312 L 119.3125 260.460938 " fill-opacity="1" fill-rule="nonzero"/><path fill="#ffffff" d="M 316.914062 221.5625 L 278.933594 221.5625 L 278.933594 208.902344 L 316.914062 208.902344 Z M 316.914062 246.882812 L 278.933594 246.882812 L 278.933594 234.222656 L 316.914062 234.222656 Z M 316.914062 272.207031 L 278.933594 272.207031 L 278.933594 259.542969 L 316.914062 259.542969 Z M 266.964844 197.03125 C 263.527344 200.570312 258.730469 202.570312 253.609375 202.570312 L 253.140625 202.570312 L 248.589844 261.425781 C 247.675781 278.066406 233.777344 291.195312 216.988281 291.195312 L 138.304688 291.195312 C 121.515625 291.195312 107.617188 278.066406 106.703125 261.300781 L 102.152344 202.570312 L 101.683594 202.570312 C 91.195312 202.570312 82.691406 194.066406 82.691406 183.582031 C 82.691406 178.460938 84.695312 173.664062 88.328125 170.128906 C 91.765625 166.59375 96.5625 164.589844 101.683594 164.589844 L 112.761719 164.589844 L 109.742188 147.652344 C 109.546875 146.464844 109.472656 145.449219 109.472656 144.335938 C 109.472656 135.113281 116.097656 127.273438 125.222656 125.691406 C 130.117188 124.777344 135.140625 125.867188 139.292969 128.757812 C 143.496094 131.675781 146.292969 136.054688 147.15625 141.097656 L 151.3125 164.589844 L 203.980469 164.589844 L 208.136719 141.074219 C 209 136.054688 211.796875 131.675781 216 128.757812 C 220.152344 125.867188 225.199219 124.777344 230.144531 125.691406 C 239.195312 127.273438 245.820312 135.113281 245.820312 144.335938 C 245.820312 145.449219 245.746094 146.464844 245.550781 147.550781 L 242.53125 164.589844 L 253.609375 164.589844 C 264.09375 164.589844 272.601562 173.097656 272.601562 183.582031 C 272.601562 188.699219 270.597656 193.496094 266.964844 197.03125 Z M 76.359375 221.5625 L 38.378906 221.5625 L 38.378906 208.902344 L 76.359375 208.902344 Z M 76.359375 246.882812 L 38.378906 246.882812 L 38.378906 234.222656 L 76.359375 234.222656 Z M 76.359375 272.207031 L 38.378906 272.207031 L 38.378906 259.542969 L 76.359375 259.542969 Z M 329.574219 113.945312 C 319.1875 113.945312 310.015625 108.851562 304.253906 101.089844 C 298.492188 108.851562 289.316406 113.945312 278.933594 113.945312 C 268.546875 113.945312 259.371094 108.851562 253.609375 101.089844 C 247.847656 108.851562 238.675781 113.945312 228.289062 113.945312 C 217.902344 113.945312 208.730469 108.851562 202.96875 101.089844 C 197.207031 108.851562 188.03125 113.945312 177.644531 113.945312 C 167.261719 113.945312 158.085938 108.851562 152.324219 101.089844 C 146.5625 108.851562 137.390625 113.945312 127.003906 113.945312 C 116.617188 113.945312 107.445312 108.851562 101.683594 101.089844 C 95.921875 108.851562 86.746094 113.945312 76.359375 113.945312 C 65.976562 113.945312 56.800781 108.851562 51.039062 101.089844 C 45.277344 108.851562 36.101562 113.945312 25.71875 113.945312 L 25.71875 303.855469 L 329.574219 303.855469 L 329.574219 113.945312 " fill-opacity="1" fill-rule="nonzero"/><path fill="#ffffff" d="M 202.96875 329.179688 L 202.96875 316.519531 L 152.324219 316.519531 L 152.324219 329.179688 L 202.96875 329.179688 " fill-opacity="1" fill-rule="nonzero"/><g clip-path="url(#8c4e34cd64)"><path fill="#ffffff" d="M 0.394531 348.167969 C 0.394531 351.65625 3.238281 354.5 6.726562 354.5 L 348.566406 354.5 C 352.050781 354.5 354.894531 351.65625 354.894531 348.167969 L 354.894531 316.519531 L 215.628906 316.519531 L 215.628906 329.179688 C 215.628906 336.152344 209.941406 341.839844 202.96875 341.839844 L 152.324219 341.839844 C 145.351562 341.839844 139.664062 336.152344 139.664062 329.179688 L 139.664062 316.519531 L 0.394531 316.519531 L 0.394531 348.167969 " fill-opacity="1" fill-rule="nonzero"/></g><g fill="#ffffff" fill-opacity="1"><g transform="translate(391.687748, 241.042436)"><g><path d="M 38.125 -25.296875 L 46.375 -25.296875 C 53.457031 -25.296875 59.65625 -26.941406 64.96875 -30.234375 C 70.289062 -33.535156 74.445312 -37.992188 77.4375 -43.609375 C 80.425781 -49.234375 81.921875 -55.46875 81.921875 -62.3125 C 81.921875 -69.28125 80.425781 -75.539062 77.4375 -81.09375 C 74.445312 -86.65625 70.289062 -91.054688 64.96875 -94.296875 C 59.65625 -97.535156 53.457031 -99.15625 46.375 -99.15625 L 38.125 -99.15625 Z M 11 -124.625 L 48.015625 -124.625 C 56.816406 -124.625 64.972656 -123.035156 72.484375 -119.859375 C 80.003906 -116.679688 86.570312 -112.28125 92.1875 -106.65625 C 97.8125 -101.039062 102.179688 -94.445312 105.296875 -86.875 C 108.410156 -79.300781 109.96875 -71.113281 109.96875 -62.3125 C 109.96875 -53.519531 108.410156 -45.332031 105.296875 -37.75 C 102.179688 -30.175781 97.84375 -23.578125 92.28125 -17.953125 C 86.71875 -12.335938 80.148438 -7.941406 72.578125 -4.765625 C 65.003906 -1.585938 56.816406 0 48.015625 0 L 11 0 Z M 11 -124.625 "/></g></g></g><g fill="#ffffff" fill-opacity="1"><g transform="translate(508.066279, 241.042436)"><g><path d="M 35.921875 -50.03125 L 72.03125 -50.03125 C 72.03125 -50.03125 71.875 -50.796875 71.5625 -52.328125 C 71.257812 -53.859375 70.523438 -55.597656 69.359375 -57.546875 C 68.203125 -59.503906 66.398438 -61.242188 63.953125 -62.765625 C 61.515625 -64.296875 58.21875 -65.0625 54.0625 -65.0625 C 49.789062 -65.0625 46.429688 -64.296875 43.984375 -62.765625 C 41.546875 -61.242188 39.742188 -59.503906 38.578125 -57.546875 C 37.421875 -55.597656 36.6875 -53.859375 36.375 -52.328125 C 36.070312 -50.796875 35.921875 -50.03125 35.921875 -50.03125 Z M 98.421875 -42.15625 C 98.421875 -41.300781 98.390625 -40.445312 98.328125 -39.59375 C 98.265625 -38.738281 98.234375 -37.878906 98.234375 -37.015625 L 35.5625 -37.015625 C 35.5625 -33.960938 36.257812 -30.9375 37.65625 -27.9375 C 39.0625 -24.945312 41.078125 -22.503906 43.703125 -20.609375 C 46.335938 -18.722656 49.425781 -17.78125 52.96875 -17.78125 C 57.851562 -17.78125 61.703125 -19.09375 64.515625 -21.71875 C 67.328125 -24.34375 68.789062 -27.125 68.90625 -30.0625 L 96.953125 -30.0625 C 94.628906 -19.425781 89.492188 -11.453125 81.546875 -6.140625 C 73.609375 -0.828125 64.265625 1.828125 53.515625 1.828125 C 44.234375 1.828125 36.046875 0.0859375 28.953125 -3.390625 C 21.867188 -6.867188 16.34375 -11.753906 12.375 -18.046875 C 8.40625 -24.335938 6.421875 -31.765625 6.421875 -40.328125 C 6.421875 -48.753906 8.460938 -56.144531 12.546875 -62.5 C 16.640625 -68.851562 22.226562 -73.800781 29.3125 -77.34375 C 36.40625 -80.882812 44.472656 -82.65625 53.515625 -82.65625 C 61.703125 -82.65625 69.1875 -81.066406 75.96875 -77.890625 C 82.75 -74.710938 88.1875 -70.128906 92.28125 -64.140625 C 96.375 -58.160156 98.421875 -50.832031 98.421875 -42.15625 Z M 98.421875 -42.15625 "/></g></g></g><g fill="#ffffff" fill-opacity="1"><g transform="translate(612.898585, 241.042436)"><g><path d="M 38.484375 0 L 11 0 L 11 -137.453125 L 38.484375 -137.453125 Z M 38.484375 0 "/></g></g></g><g fill="#ffffff" fill-opacity="1"><g transform="translate(662.382362, 241.042436)"><g><path d="M 38.484375 0 L 11 0 L 11 -137.453125 L 38.484375 -137.453125 Z M 38.484375 0 "/></g></g></g><g fill="#ffffff" fill-opacity="1"><g transform="translate(711.866139, 241.042436)"><g><path d="M 43.796875 45.8125 L 15.21875 45.8125 L 33.546875 0 L 28.953125 0 L -1.828125 -80.828125 L 25.84375 -80.828125 L 45.09375 -23.09375 L 64.328125 -80.828125 L 92.1875 -80.828125 L 61.40625 0 Z M 43.796875 45.8125 "/></g></g></g><g fill="#ffffff" fill-opacity="1"><g transform="translate(802.219837, 241.042436)"><g><path d="M 38.484375 -40.328125 C 38.484375 -36.773438 39.335938 -33.472656 41.046875 -30.421875 C 42.765625 -27.367188 45.054688 -24.894531 47.921875 -23 C 50.796875 -21.101562 54.066406 -20.15625 57.734375 -20.15625 C 61.398438 -20.15625 64.664062 -21.101562 67.53125 -23 C 70.40625 -24.894531 72.695312 -27.367188 74.40625 -30.421875 C 76.125 -33.472656 76.984375 -36.773438 76.984375 -40.328125 C 76.984375 -43.867188 76.125 -47.164062 74.40625 -50.21875 C 72.695312 -53.269531 70.40625 -55.742188 67.53125 -57.640625 C 64.664062 -59.535156 61.398438 -60.484375 57.734375 -60.484375 C 54.066406 -60.484375 50.796875 -59.535156 47.921875 -57.640625 C 45.054688 -55.742188 42.765625 -53.269531 41.046875 -50.21875 C 39.335938 -47.164062 38.484375 -43.867188 38.484375 -40.328125 Z M 38.484375 0 L 11 0 L 11 -137.453125 L 38.484375 -137.453125 L 38.484375 -70.9375 C 42.023438 -75.332031 46.207031 -78.382812 51.03125 -80.09375 C 55.863281 -81.800781 60.910156 -82.65625 66.171875 -82.65625 C 73.867188 -82.65625 80.738281 -80.671875 86.78125 -76.703125 C 92.832031 -72.734375 97.597656 -67.539062 101.078125 -61.125 C 104.554688 -54.707031 106.296875 -47.773438 106.296875 -40.328125 C 106.296875 -32.867188 104.554688 -25.929688 101.078125 -19.515625 C 97.597656 -13.097656 92.832031 -7.9375 86.78125 -4.03125 C 80.738281 -0.125 73.867188 1.828125 66.171875 1.828125 C 60.910156 1.828125 55.679688 0.941406 50.484375 -0.828125 C 45.296875 -2.597656 41.296875 -5.5625 38.484375 -9.71875 Z M 38.484375 0 "/></g></g></g><g fill="#ffffff" fill-opacity="1"><g transform="translate(914.932912, 241.042436)"><g><path d="M 35.921875 -50.03125 L 72.03125 -50.03125 C 72.03125 -50.03125 71.875 -50.796875 71.5625 -52.328125 C 71.257812 -53.859375 70.523438 -55.597656 69.359375 -57.546875 C 68.203125 -59.503906 66.398438 -61.242188 63.953125 -62.765625 C 61.515625 -64.296875 58.21875 -65.0625 54.0625 -65.0625 C 49.789062 -65.0625 46.429688 -64.296875 43.984375 -62.765625 C 41.546875 -61.242188 39.742188 -59.503906 38.578125 -57.546875 C 37.421875 -55.597656 36.6875 -53.859375 36.375 -52.328125 C 36.070312 -50.796875 35.921875 -50.03125 35.921875 -50.03125 Z M 98.421875 -42.15625 C 98.421875 -41.300781 98.390625 -40.445312 98.328125 -39.59375 C 98.265625 -38.738281 98.234375 -37.878906 98.234375 -37.015625 L 35.5625 -37.015625 C 35.5625 -33.960938 36.257812 -30.9375 37.65625 -27.9375 C 39.0625 -24.945312 41.078125 -22.503906 43.703125 -20.609375 C 46.335938 -18.722656 49.425781 -17.78125 52.96875 -17.78125 C 57.851562 -17.78125 61.703125 -19.09375 64.515625 -21.71875 C 67.328125 -24.34375 68.789062 -27.125 68.90625 -30.0625 L 96.953125 -30.0625 C 94.628906 -19.425781 89.492188 -11.453125 81.546875 -6.140625 C 73.609375 -0.828125 64.265625 1.828125 53.515625 1.828125 C 44.234375 1.828125 36.046875 0.0859375 28.953125 -3.390625 C 21.867188 -6.867188 16.34375 -11.753906 12.375 -18.046875 C 8.40625 -24.335938 6.421875 -31.765625 6.421875 -40.328125 C 6.421875 -48.753906 8.460938 -56.144531 12.546875 -62.5 C 16.640625 -68.851562 22.226562 -73.800781 29.3125 -77.34375 C 36.40625 -80.882812 44.472656 -82.65625 53.515625 -82.65625 C 61.703125 -82.65625 69.1875 -81.066406 75.96875 -77.890625 C 82.75 -74.710938 88.1875 -70.128906 92.28125 -64.140625 C 96.375 -58.160156 98.421875 -50.832031 98.421875 -42.15625 Z M 98.421875 -42.15625 "/></g></g></g><g fill="#ffffff" fill-opacity="1"><g transform="translate(1019.765206, 241.042436)"><g><path d="M 35.921875 -50.03125 L 72.03125 -50.03125 C 72.03125 -50.03125 71.875 -50.796875 71.5625 -52.328125 C 71.257812 -53.859375 70.523438 -55.597656 69.359375 -57.546875 C 68.203125 -59.503906 66.398438 -61.242188 63.953125 -62.765625 C 61.515625 -64.296875 58.21875 -65.0625 54.0625 -65.0625 C 49.789062 -65.0625 46.429688 -64.296875 43.984375 -62.765625 C 41.546875 -61.242188 39.742188 -59.503906 38.578125 -57.546875 C 37.421875 -55.597656 36.6875 -53.859375 36.375 -52.328125 C 36.070312 -50.796875 35.921875 -50.03125 35.921875 -50.03125 Z M 98.421875 -42.15625 C 98.421875 -41.300781 98.390625 -40.445312 98.328125 -39.59375 C 98.265625 -38.738281 98.234375 -37.878906 98.234375 -37.015625 L 35.5625 -37.015625 C 35.5625 -33.960938 36.257812 -30.9375 37.65625 -27.9375 C 39.0625 -24.945312 41.078125 -22.503906 43.703125 -20.609375 C 46.335938 -18.722656 49.425781 -17.78125 52.96875 -17.78125 C 57.851562 -17.78125 61.703125 -19.09375 64.515625 -21.71875 C 67.328125 -24.34375 68.789062 -27.125 68.90625 -30.0625 L 96.953125 -30.0625 C 94.628906 -19.425781 89.492188 -11.453125 81.546875 -6.140625 C 73.609375 -0.828125 64.265625 1.828125 53.515625 1.828125 C 44.234375 1.828125 36.046875 0.0859375 28.953125 -3.390625 C 21.867188 -6.867188 16.34375 -11.753906 12.375 -18.046875 C 8.40625 -24.335938 6.421875 -31.765625 6.421875 -40.328125 C 6.421875 -48.753906 8.460938 -56.144531 12.546875 -62.5 C 16.640625 -68.851562 22.226562 -73.800781 29.3125 -77.34375 C 36.40625 -80.882812 44.472656 -82.65625 53.515625 -82.65625 C 61.703125 -82.65625 69.1875 -81.066406 75.96875 -77.890625 C 82.75 -74.710938 88.1875 -70.128906 92.28125 -64.140625 C 96.375 -58.160156 98.421875 -50.832031 98.421875 -42.15625 Z M 98.421875 -42.15625 "/></g></g></g></svg>